<svg width="101" height="26" viewBox="0 0 101 26" fill="none" xmlns="http://www.w3.org/2000/svg">
<g clip-path="url(#clip0)">
<path d="M19.8991 0.598708C19.5181 0.204437 19.0508 0.00730132 18.5045 0.00730132H1.96978C1.42342 0.00730132 0.956136 0.204437 0.575119 0.591407C0.194103 0.978377 0 1.45296 0 2.00786C0 2.28531 0.0503229 2.54816 0.150969 2.7818C0.251615 3.02275 0.395395 3.23448 0.575119 3.41702C0.754844 3.59955 0.963325 3.74558 1.20056 3.8551C1.4378 3.96462 1.6966 4.02303 1.96978 4.02303H8.26734V24.0213C8.26734 24.5616 8.45426 25.0289 8.82808 25.4159C9.20191 25.8029 9.6692 26 10.2156 26C10.4887 26 10.7475 25.9489 10.9848 25.8467C11.222 25.7444 11.4377 25.6057 11.6246 25.4305C11.8115 25.2553 11.9553 25.0362 12.0488 24.7953C12.1494 24.5543 12.1997 24.2915 12.1997 24.0213V4.01573H18.4973C19.0436 4.01573 19.5109 3.81859 19.8919 3.43162C20.273 3.04465 20.4671 2.57006 20.4671 2.01516C20.4671 1.46757 20.273 0.985678 19.8991 0.598708ZM77.5261 1.97866V24.014C77.5261 24.3645 77.447 24.6858 77.296 24.9705C77.1451 25.248 76.9366 25.4743 76.685 25.6422C76.3759 25.8759 76.0164 25.9927 75.5995 25.9927H75.5204H75.5132H75.506C74.9525 25.9781 74.478 25.7152 74.0969 25.2042L59.9418 7.50576V24.014C59.9418 24.5689 59.7477 25.0435 59.3523 25.4232C58.9641 25.8029 58.4968 25.9927 57.9505 25.9927C57.4185 25.9927 56.9584 25.8029 56.5702 25.4232C56.182 25.0435 55.9807 24.5689 55.9807 24.014V2.03707C55.9807 1.78882 56.0238 1.55518 56.1101 1.33614C56.1892 1.1244 56.3042 0.934569 56.4336 0.766638C56.5989 0.5549 56.8002 0.372367 57.0375 0.233642C57.2891 0.0803145 57.5982 0.00730132 57.9433 0.00730132C58.5472 0.00730132 59.072 0.262848 59.5033 0.759337L59.5105 0.766638L59.5177 0.77394L73.5722 18.3628V1.97866C73.5722 1.70121 73.6297 1.43836 73.7303 1.19742C73.8382 0.956473 73.9819 0.744735 74.1617 0.569503C74.3414 0.394271 74.5571 0.255546 74.8015 0.153328C75.0387 0.0511092 75.3047 0 75.5707 0C76.1171 0 76.5844 0.197136 76.9582 0.584105C77.3392 0.971075 77.5261 1.43836 77.5261 1.97866ZM81.6023 12.9817C81.6023 11.8646 82.5009 10.952 83.6008 10.952H92.357C93.4569 10.952 94.3555 11.8646 94.3555 12.9817C94.3555 14.0988 93.4569 15.0115 92.357 15.0115H83.6008C82.5009 15.0115 81.6023 14.0988 81.6023 12.9817ZM100.455 2.03707C100.455 3.15417 99.5559 4.06683 98.456 4.06683H83.6008C82.5009 4.06683 81.6023 3.15417 81.6023 2.03707C81.6023 0.919966 82.5009 0.00730132 83.6008 0.00730132H98.456C99.5559 1.66177e-09 100.455 0.912665 100.455 2.03707ZM100.455 23.9045C100.455 25.0216 99.5559 25.9343 98.456 25.9343H83.6008C82.5009 25.9343 81.6023 25.0216 81.6023 23.9045C81.6023 22.7874 82.5009 21.8748 83.6008 21.8748H98.456C99.5559 21.8748 100.455 22.7874 100.455 23.9045Z" fill="#1D2235"/>
<path d="M32.4366 19.6812C32.3497 19.3985 32.1976 19.1304 31.9876 18.8985C31.7776 18.6667 31.5386 18.4783 31.2562 18.3551C30.981 18.2319 30.6986 18.1594 30.4089 18.1377C30.3655 18.1377 30.3148 18.1304 30.2714 18.1304C30.0251 18.1304 29.7789 18.1667 29.54 18.2464C29.2503 18.3406 28.9896 18.4928 28.7506 18.7029C28.5189 18.913 28.3306 19.1594 28.2075 19.4348C28.0772 19.7101 28.012 19.9927 27.9975 20.2826C27.983 20.5652 28.0265 20.8551 28.1206 21.1377C28.2147 21.4275 28.3668 21.6956 28.5768 21.9275C28.7868 22.1594 29.033 22.3478 29.301 22.471C29.5617 22.5942 29.8441 22.6594 30.1265 22.6884C30.1845 22.6956 30.2351 22.6956 30.2931 22.6956C30.5248 22.6956 30.7638 22.6594 30.9955 22.5797C31.2852 22.4855 31.5459 22.3333 31.7848 22.1232C32.0166 21.913 32.2049 21.6667 32.328 21.3913C32.4511 21.1159 32.5235 20.8333 32.5452 20.5435C32.5597 20.2464 32.5307 19.9565 32.4366 19.6812ZM30.2786 18.4203H30.2858C30.2786 18.4203 30.2714 18.4203 30.2641 18.4203C30.2641 18.4203 30.2714 18.4203 30.2786 18.4203ZM51.5109 13.7754C51.3081 17.2391 49.7584 20.4203 47.1659 22.7246C44.7835 24.8406 41.7203 26 38.5267 26C38.1502 26 37.7591 25.9855 37.3609 25.9493C36.3181 25.8551 35.5505 24.9275 35.6374 23.8841C35.7243 22.913 36.557 22.1522 37.5274 22.1522C37.5853 22.1522 37.6433 22.1522 37.7012 22.1594C37.9836 22.1884 38.2733 22.1956 38.5557 22.1956C40.8296 22.1956 42.9296 21.3913 44.6386 19.8768C46.478 18.2464 47.5715 15.9927 47.7163 13.5435C47.8611 11.087 47.0428 8.72464 45.4135 6.8913C43.7841 5.05072 41.532 3.95652 39.0843 3.81159C38.9033 3.80435 38.7223 3.7971 38.5412 3.7971C36.2819 3.7971 34.1166 4.62319 32.4293 6.11594C30.5176 7.81159 29.3951 10.2464 29.3372 12.8043C29.3155 13.8043 28.4537 14.6377 27.4109 14.6667H27.4037H27.3964C26.8895 14.6594 26.4188 14.4493 26.064 14.0797C25.7092 13.7101 25.5281 13.2319 25.5354 12.7246C25.6078 9.11594 27.2009 5.66667 29.902 3.27536C31.0969 2.21739 32.4583 1.3913 33.9356 0.833333C35.4274 0.282609 36.977 0 38.5774 0V0.289855V0C38.8237 0 39.0699 0.00724638 39.3161 0.0217391C42.7776 0.224638 45.9566 1.77536 48.2594 4.36956C50.5622 6.96377 51.7209 10.3043 51.5109 13.7754ZM37.5274 22.442C37.5274 22.442 37.5347 22.442 37.5274 22.442C37.5347 22.442 37.5347 22.442 37.5419 22.442C37.5347 22.442 37.5347 22.442 37.5274 22.442Z" fill="#3759CA"/>
</g>
<defs>
<clipPath id="clip0">
<rect width="100.455" height="26" fill="white"/>
</clipPath>
</defs>
</svg>
